# xmcd CD database file
#
# Track frame offsets:
#	150
#	15442
#	27137
#	37957
#	49222
#	63335
#	74175
#	85875
#	96512
#	109542
#	124950
#
# Disc length: 1864 seconds
#
# Revision: 0
# Processed by: cddbd v1.4PL0 Copyright (c) Steve Scherf et al.
# Submitted via: CDex 1.40Release
#
DISCID=9307460b
DTITLE=Nitty Gritty Dirt Band - Rare Junk
DYEAR=1900
DGENRE=Country
TTITLE0=Mournin' Blues
TTITLE1=Collegiana
TTITLE2=Willie The Weeper
TTITLE3=Cornbread And 'Lasses
TTITLE4=These Days
TTITLE5=Sadie Green The Vamp Of New Orleans
TTITLE6=Do. Heckle And Mr. Jibe
TTITLE7=End Of Your Life
TTITLE8=Reason To Believe
TTITLE9=Hesitation Blues
TTITLE10=A Number And A Name
EXTD=ID3G: 2
EXTT0=
EXTT1=
EXTT2=
EXTT3=
EXTT4=
EXTT5=
EXTT6=
EXTT7=
EXTT8=
EXTT9=
EXTT10=
PLAYORDER=
